PathFileType	4	(X/Y/Z)	..\data\2014004\dynamic\2014004_C4_02.trc
DataRate	CameraRate	NumFrames	NumMarkers	Units	OrigDataRate	OrigDataStartFrame	OrigNumFrames
100.000000	100.000000	4	52	mm	100.000000	129	172
Frame#	Time	L_IAS			L_IPS			R_IPS			R_IAS			L_FTC			L_FLE			L_FME			L_FAX			L_TTC			L_FAL			L_TAM			L_FCC			L_FM1			L_FM2			L_FM5			R_FTC			R_FLE			R_FME			R_FAX			R_TTC			R_FAL			R_TAM			R_FCC			R_FM1			R_FM2			R_FM5			CV7			TV10			SXS			SJN			L_SIA			L_SRS			L_SAA			L_SAE			L_HLE			L_HME			L_UOA			L_RSP			L_UHE			L_HM2			L_HM5			R_SIA			R_SRS			R_SAA			R_SAE			R_HLE			R_HME			R_UOA			R_RSP			R_UHE			R_HM2			R_HM5			
		X1	Y1	Z1	X2	Y2	Z2	X3	Y3	Z3	X4	Y4	Z4	X5	Y5	Z5	X6	Y6	Z6	X7	Y7	Z7	X8	Y8	Z8	X9	Y9	Z9	X10	Y10	Z10	X11	Y11	Z11	X12	Y12	Z12	X13	Y13	Z13	X14	Y14	Z14	X15	Y15	Z15	X16	Y16	Z16	X17	Y17	Z17	X18	Y18	Z18	X19	Y19	Z19	X20	Y20	Z20	X21	Y21	Z21	X22	Y22	Z22	X23	Y23	Z23	X24	Y24	Z24	X25	Y25	Z25	X26	Y26	Z26	X27	Y27	Z27	X28	Y28	Z28	X29	Y29	Z29	X30	Y30	Z30	X31	Y31	Z31	X32	Y32	Z32	X33	Y33	Z33	X34	Y34	Z34	X35	Y35	Z35	X36	Y36	Z36	X37	Y37	Z37	X38	Y38	Z38	X39	Y39	Z39	X40	Y40	Z40	X41	Y41	Z41	X42	Y42	Z42	X43	Y43	Z43	X44	Y44	Z44	X45	Y45	Z45	X46	Y46	Z46	X47	Y47	Z47	X48	Y48	Z48	X49	Y49	Z49	X50	Y50	Z50	X51	Y51	Z51	X52	Y52	Z52	

130	1.29	449.7317810058595	950.5748291015627	151.045883178711	246.6084899902344	967.4887695312502	215.0112304687501	246.7100524902344	961.2165527343752	306.4702758789064	441.0039672851563	937.6380615234377	380.2456359863282	375.6356811523438	891.7958984375002	74.80764007568365	473.5065002441407	480.2619628906251	136.0043945312501	474.6682434082032	492.4139709472657	260.2197570800782	464.6219482421876	416.3882751464845	130.4707489013673	525.3583984375001	408.8898010253907	204.2612609863282	454.5760192871095	53.79293441772462	174.704330444336	469.9173889160157	79.41408538818361	270.1130676269532	401.0202636718751	21.59856414794922	224.4332733154298	605.0823974609376	20.78650283813477	273.7215270996095	606.4835815429689	35.09057235717774	215.7325744628908	581.5084228515626	13.44991683959961	161.0394439697267	373.4801635742188	854.3494873046877	440.3488769531252	303.637451171875	443.928436279297	430.5650329589845	358.4996032714844	425.653778076172	311.8755493164064	275.8819580078125	420.4072265625001	433.0564575195314	329.5960083007812	369.2315368652344	393.6844177246095	-1.343852519989061	189.9858703613282	381.5835571289063	32.43804931640622	199.6863403320313	289.2319335937501	-55.66168975830083	216.3585205078126	317.9046630859376	39.97472381591794	56.42334747314455	283.1575622558594	46.6818809509277	57.63913726806642	334.2030944824219	16.05655860900875	58.00961685180665	380.9580993652344	290.7367858886719	1452.46923828125	233.214828491211	217.4759826660157	1221.37158203125	249.4735260009766	467.5127868652344	1186.898803710938	239.0196380615236	411.0310363769532	1369.472412109375	235.9348907470704	209.6192932128907	1249.77490234375	138.5711364746094	233.5686950683594	1394.017822265625	164.7791900634766	270.1777343750001	1398.69873046875	79.77986145019536	336.1134948730469	1401.320678710938	45.0327873229981	262.9107971191407	1085.085083007813	-1.690611839294402	244.1913452148438	1087.457641601563	83.01540374755864	220.6202239990235	1079.763427734375	34.36677551269535	313.3071594238282	816.092956542969	22.84607887268071	248.0975036621094	841.3828735351565	-17.61348724365232	309.0635681152344	728.7252197265626	18.87668228149418	211.3187255859376	758.5479736328126	-11.44265842437742	219.31591796875	1245.958862304688	369.6274719238282	241.0890350341797	1389.9638671875	325.4335327148439	297.5706481933594	1410.128051757813	404.8374023437502	361.033447265625	1415.751220703125	419.259979248047	287.9987182617188	1103.357055664063	526.6302490234376	262.760498046875	1089.282958984375	438.0383911132814	243.9393310546875	1081.632934570313	490.4592895507814	444.7835083007813	878.3304443359377	501.9375915527345	376.2625732421875	863.803161621094	542.0916137695314	485.8096923828126	798.6812133789065	521.5290527343752	381.1224975585938	780.3361816406252	535.3720092773439	
131	1.3	461.5838928222657	951.877380371094	150.1849365234376	258.3423767089844	969.1553344726565	214.493621826172	258.5081481933594	962.7047119140627	305.8599853515626	452.9381408691407	939.9473266601565	379.4364624023439	386.9920959472657	893.0332641601565	74.3533554077149	478.9667968750001	480.0902404785157	135.9420318603516	480.1896362304688	492.1893005371095	260.244354248047	469.0716857910157	416.2580566406251	130.4951934814454	529.8738403320314	408.0617675781251	204.2475433349611	454.6107177734376	53.99592208862306	174.9453735351563	469.8681945800782	79.55016326904298	270.3948974609376	401.1652832031251	21.67536544799805	224.5844726562501	605.0899047851564	20.75863456726075	273.952850341797	606.7040405273439	35.33893203735352	215.8554992675783	581.4611206054689	13.93533611297608	160.9381408691407	386.5999145507813	856.0939941406252	439.5812988281252	328.2826538085938	444.0633239746095	430.9930725097658	382.3863830566406	426.489471435547	311.8914184570314	300.5956115722656	420.7746582031251	433.5428771972658	354.28857421875	369.9123535156251	393.9099731445314	22.60974693298336	191.5567016601563	383.1643676757813	56.09664916992185	201.0926208496094	290.8062744140626	-32.60458755493169	216.8050231933594	319.5629577636719	65.87297058105467	58.02423477172853	286.0650634765626	72.71223449707028	60.26296615600587	337.2457275390626	42.06148147583004	60.5540008544922	383.7891845703126	302.6751403808594	1453.961181640625	231.7494506835938	229.2959899902344	1222.84375	248.5522918701173	479.3907775878907	1188.755249023438	238.6226806640626	422.6324462890626	1371.2626953125	235.1245880126954	221.8770904541016	1251.056030273438	137.1536865234376	245.3148040771485	1395.4287109375	163.6499481201172	282.0222473144532	1400.072387695313	78.65650939941411	348.0902099609376	1402.808959960938	44.14395904541021	278.0879821777344	1085.626220703125	-2.756129264831509	259.3966369628907	1087.74658203125	81.45004272460942	235.8258514404297	1079.551879882813	33.14743423461918	333.3544311523438	817.706970214844	21.67637443542485	267.9410705566407	841.7288818359377	-18.75886535644528	331.1391906738282	730.2912597656251	17.6930255889893	232.8822174072266	758.0517578125001	-12.24602127075193	230.7912445068359	1247.943481445313	368.7265625000001	252.7872314453125	1391.719116210938	324.3412475585939	309.2106323242188	1412.214233398438	403.7650146484377	372.6585693359375	1417.896362304688	418.2523498535158	298.6361083984375	1105.970581054688	525.9662475585939	272.41259765625	1092.404541015625	437.677947998047	253.9514465332031	1085.2900390625	490.2858276367189	449.8563537597657	877.134704589844	501.4379882812502	381.0408020019531	864.4746093750002	542.1872558593751	488.7055664062501	796.1608886718752	520.7654418945315	383.5929565429688	780.9104003906252	535.8552856445314	
132	1.31	473.2500305175782	953.0489501953127	149.3299865722657	269.9187927246094	970.7546997070315	213.894744873047	270.1050109863281	964.2812500000002	305.1502990722657	464.7066040039063	942.3774414062502	378.6967163085939	398.1237182617189	894.0723266601565	73.94427490234381	483.912322998047	479.8316345214845	135.8719482421876	485.3483886718751	491.8516235351564	260.265350341797	473.0448608398439	416.049041748047	130.500228881836	533.9705810546876	407.1911621093751	204.1916809082032	454.6279296875001	54.12768554687501	175.1908721923829	469.8460998535157	79.63210296630861	270.6653442382814	401.2686767578126	21.76730155944825	224.7745513916017	605.1011352539064	20.76200485229493	274.148895263672	606.8904418945314	35.51984024047852	215.9790191650392	581.3820800781251	14.3036470413208	160.8944396972657	399.5820007324219	858.1030883789065	438.8338623046877	352.8963317871094	444.5718383789064	431.1166381835939	406.0657653808594	427.9480285644532	311.548553466797	325.2651062011719	421.4324035644532	433.6795043945314	379.0471496582031	371.0540771484376	393.7973632812502	47.52831649780269	192.0697021484376	384.4942016601564	80.82829284667966	201.5550994873047	292.1870422363282	-8.7136497497559	215.6090393066407	320.8984985351563	94.2252731323242	59.00858688354494	288.9704895019532	101.002067565918	62.49843978881837	340.3249816894532	70.17437744140622	62.48779678344728	386.6461181640626	314.4479980468751	1455.46337890625	230.4675750732423	240.9904174804688	1224.306030273438	247.6405639648438	491.0795898437501	1190.552001953125	238.2551727294923	434.1138000488282	1373.008056640625	234.409149169922	234.0501098632813	1252.335571289063	135.7039794921876	256.9467163085938	1396.861572265625	162.6152496337891	293.7212524414063	1401.489624023438	77.65092468261724	359.9230041503907	1404.348754882813	43.36103057861333	293.2564086914063	1086.202392578125	-3.856307744979823	274.5909118652344	1088.042236328125	79.86034393310551	251.1007385253907	1079.297973632813	31.93549919128422	353.8466491699219	819.5925903320315	20.5314044952393	288.1845703125001	842.1729125976565	-19.84625625610348	353.9556274414063	732.2135009765626	16.36891365051274	255.1087493896485	757.5972900390626	-12.99521350860593	242.1050262451172	1249.870483398438	367.8157348632814	264.4185485839844	1393.427978515625	323.316131591797	320.7478332519531	1414.219604492188	402.7815856933595	384.1662597656251	1419.932250976563	417.3585510253908	309.0591430664062	1108.513305664063	525.4321899414064	281.7992858886719	1095.431884765625	437.4671020507814	263.7690734863281	1088.855102539063	490.2741699218752	454.7472534179688	876.1322021484377	500.9501953125002	385.7774047851563	865.283874511719	542.3794555664064	491.4529724121094	793.8732910156252	519.8428955078127	386.0735168457032	781.6564941406252	536.3513183593751	
133	1.32	484.7352600097657	954.089538574219	148.4656982421876	281.3693237304688	972.2791748046877	213.2433319091798	281.53955078125	965.926696777344	304.3980712890626	476.3511047363282	944.8684692382815	377.9815673828126	409.0394897460939	894.931579589844	73.57233428955085	488.4461975097657	479.5154113769532	135.7917785644532	490.2452697753907	491.4349975585939	260.2673339843751	476.6552734375001	415.7971801757814	130.4839019775391	537.7335205078126	406.3021545410157	204.1016540527345	454.6489868164064	54.20793914794923	175.4397430419923	469.8737792968751	79.66727447509767	270.928924560547	401.3370056152345	21.90019607543946	224.9899444580079	605.1270141601564	20.73372268676758	274.3222656250001	607.0598754882814	35.60270309448243	216.1243743896486	581.2902221679689	14.53616809844971	160.8961334228517	412.5067749023438	860.3242797851565	438.1100463867189	377.3888549804688	445.4226989746095	430.9690856933595	429.5116271972657	429.968719482422	310.9071350097657	349.7969665527344	422.3502197265626	433.5034179687502	403.7905578613282	372.6195678710938	393.405242919922	73.32523345947263	191.5026550292969	385.5627746582032	106.5763168334961	201.0276641845704	293.3616333007813	16.00178337097164	212.8150329589844	321.8891906738282	124.7401428222656	59.35197067260744	291.8468322753907	131.2383117675781	64.25914764404298	343.3820190429688	100.1226425170898	63.76839065551759	389.4657592773439	326.0605773925782	1456.953247070313	229.3648986816407	252.5823059082032	1225.728637695313	246.7332000732423	502.5989685058594	1192.269653320313	237.8966064453126	445.4902954101563	1374.683715820313	233.7750244140626	246.1350402832032	1253.595336914063	134.2337951660157	268.4682006835938	1398.287719726563	161.6722717285157	305.2861633300782	1402.920288085938	76.74923706054693	371.6203002929688	1405.911376953125	42.67140197753911	308.4124145507813	1086.799194335938	-4.992797851562463	289.7583312988282	1088.3349609375	78.26628112792973	266.4483642578126	1078.994995117188	30.73583030700688	374.7476806640626	821.7598876953127	19.41370391845708	308.7846374511719	842.7249145507815	-20.85827064514157	377.4393615722657	734.5181274414064	14.90778541564946	277.9399414062501	757.2266235351564	-13.68336105346677	253.2804870605469	1251.703002929688	366.8841247558595	275.9859924316406	1395.068481445313	322.3522949218751	332.1824951171875	1416.109130859375	401.8753662109377	395.5629577636719	1421.827026367188	416.5703735351564	319.2499389648438	1110.958618164063	525.0138549804689	290.9512023925781	1098.329833984375	437.373992919922	273.4028015136719	1092.285888671875	490.3794860839845	459.4956054687501	875.2990722656252	500.4856872558595	390.5182189941407	866.2039794921877	542.6636962890626	494.1189575195313	791.8198242187502	518.808288574219	388.6271667480469	782.540466308594	536.8734741210939	
